<?xml version="1.0" encoding="utf-8"?>
<!-- Generator: Adobe Illustrator 16.0.0, SVG Export Plug-In . SVG Version: 6.00 Build 0)  -->
<!DOCTYPE svg PUBLIC "-//W3C//DTD SVG 1.1//EN" "http://www.w3.org/Graphics/SVG/1.1/DTD/svg11.dtd">
<svg version="1.1" id="Layer_1" xmlns="http://www.w3.org/2000/svg" xmlns:xlink="http://www.w3.org/1999/xlink" x="0px" y="0px"
	 width="70px" height="49px" viewBox="0 0 70 49" enable-background="new 0 0 70 49" xml:space="preserve">
<g>
	<g>
		<path fill="#B8E5FA" d="M158.254-0.922c-0.28-0.565-0.856-0.925-1.488-0.925h-17.348l7.433-15.378
			c0.397-0.824,0.053-1.815-0.772-2.213c-0.824-0.398-1.813-0.053-2.212,0.771L135.283-0.91c-0.249,0.514-0.216,1.118,0.088,1.602
			c0.305,0.484,0.834,0.777,1.404,0.777h16.627L126.66,36.256l8.416-26.792c0.158-0.504,0.066-1.052-0.245-1.478
			c-0.313-0.424-0.809-0.676-1.337-0.676h-15.829L128.703-26h18.708l-0.488,1.01c-0.398,0.825-0.055,1.815,0.77,2.214
			c0.824,0.398,1.815,0.053,2.214-0.772l1.638-3.388c0.248-0.514,0.216-1.119-0.087-1.603c-0.305-0.483-0.834-0.776-1.405-0.776
			h-22.546c-0.715,0-1.35,0.458-1.574,1.136L113.797,8.445c-0.168,0.505-0.082,1.061,0.229,1.492
			c0.313,0.432,0.813,0.688,1.344,0.688h15.867L120.697,44.18c-0.24,0.766,0.104,1.596,0.816,1.967
			c0.242,0.127,0.505,0.188,0.764,0.188c0.501,0,0.991-0.229,1.314-0.648l34.489-44.864C158.465,0.321,158.532-0.355,158.254-0.922z
			"/>
	</g>
</g>
<path fill="#B8E5FA" d="M185.132,102.099L168.73,87.521h-23.747c-0.761,0-1.448-0.458-1.739-1.162
	c-0.292-0.703-0.13-1.513,0.409-2.051l41.398-41.398c0.536-0.537,1.346-0.699,2.05-0.407c0.704,0.29,1.162,0.978,1.162,1.738v56.451
	c0,0.742-0.437,1.413-1.113,1.718c-0.246,0.111-0.508,0.165-0.77,0.165C185.93,102.575,185.483,102.411,185.132,102.099z
	 M149.525,83.758h19.921c0.462,0,0.906,0.168,1.25,0.476l13.804,12.27v-47.72L149.525,83.758z"/>
<g>
	<path fill="#B8E5FA" d="M3.717,33.213h26.214c2.211,0,4.012,1.8,4.012,4.013c0,2.211-1.801,4.012-4.012,4.012
		c-1.304,0-2.53-0.636-3.283-1.705c-0.637-0.905-1.89-1.12-2.795-0.483c-0.904,0.639-1.123,1.89-0.484,2.796
		c1.503,2.131,3.956,3.404,6.562,3.404c4.426,0,8.024-3.6,8.024-8.024c0-4.426-3.599-8.025-8.024-8.025H3.717
		c-1.11,0-2.006,0.897-2.006,2.006C1.711,32.315,2.607,33.213,3.717,33.213z"/>
	<path fill="#B8E5FA" d="M0.711,19.723c0,1.109,0.896,2.007,2.006,2.007h56.44c5.531,0,10.031-4.5,10.031-10.031
		c0-5.531-4.5-10.031-10.031-10.031c-5.53,0-10.03,4.5-10.03,10.031c0,1.11,0.897,2.007,2.006,2.007s2.007-0.897,2.007-2.007
		c0-3.319,2.698-6.019,6.018-6.019c3.318,0,6.019,2.7,6.019,6.019s-2.7,6.019-6.019,6.019H2.717
		C1.607,17.717,0.711,18.614,0.711,19.723z"/>
</g>
</svg>
